<svg version="1.1" viewBox="0 0 200 220.64"
  xmlns="http://www.w3.org/2000/svg">
  <path fill="#f55" d="m30.888 0-30.888 220.64 44.864-0.00182 30.858-220.64zm62.875 0-30.856 220.64h10.22c15.234 0 29.89-2.8362 43.969-8.5099 14.185-5.7787 27.004-13.712 38.457-23.798 11.558-10.192 21.119-21.906 28.684-35.145 7.6697-13.342 12.555-27.632 14.657-42.867 2.1013-15.234 1.2071-29.471-2.6803-42.71-3.7827-13.344-10.034-25.059-18.755-35.145-8.7205-10.191-19.332-18.124-31.835-23.798-12.504-5.7789-26.373-8.6668-41.608-8.6668z" />
</svg>
