<svg version="1.1" viewBox="0 0 397.79 88.192"
  xmlns="http://www.w3.org/2000/svg">
  <g fill="#f55">
    <path d="m37.288 4.4102c-3.324 0-6.0002 2.3544-6.0002 5.2793s2.6762 5.2798 6.0002 5.2798h17.886l-0.31264 2.235h-48.861c-3.324 0-6.0002 2.3544-6.0002 5.2793s2.6762 5.2798 6.0002 5.2798h47.383l-0.31264 2.235h-17.254c-3.324 0-6.0002 2.3544-6.0002 5.2793 0 2.9249 2.6762 5.2798 6.0002 5.2798h15.776l-0.31264 2.235h-15.463c-3.324 0-6.0002 2.3549-6.0002 5.2798s2.6762 5.2793 6.0002 5.2793h13.985l-0.31264 2.235h-13.672c-3.324 0-6.0002 2.3549-6.0002 5.2798s2.6762 5.2793 6.0002 5.2793h12.194v5.1e-4l12.553-5.1e-4 8.6341-61.735h-11.973zm36.956 0-8.6336 61.735h2.8593c4.2626 0 8.3637-0.79377 12.303-2.3812 3.969-1.6169 7.5557-3.8363 10.76-6.6585 3.2338-2.8516 5.9092-6.1298 8.0259-9.834 2.146-3.7331 3.5131-7.7314 4.101-11.994 0.58795-4.2624 0.33786-8.2455-0.74982-11.95-1.0584-3.7336-2.8078-7.0118-5.2478-9.834-2.44-2.8516-5.4091-5.071-8.9075-6.6585-3.4987-1.617-7.3795-2.4252-11.642-2.4252z"/>
    <path d="m106.88 66.146 6.1295-44.097h13.229l-0.35278 2.7781q2.4694-1.8962 5.424-2.9545 2.9986-1.0583 6.1295-1.0583 2.3812 0 4.7625 0.70555l-7.0996 13.406q-1.4111-0.70555-3.0868-0.70555-2.0726 0-3.9246 1.0142-1.808 0.97014-3.0427 2.6899-1.1906 1.6757-1.4993 3.7483l-3.4396 24.474z"/>
    <path d="m176.42 22.046h13.229l-6.1736 44.097h-13.273l-0.0882-3.9688q-1.9844 2.2931-4.6743 3.7042-2.6458 1.4111-5.9531 1.4111-4.9389 0-8.9958-1.8521-4.0128-1.8521-6.8351-5.1153-2.7781-3.3073-4.0128-7.5847-1.2347-4.3215-0.52916-9.2604 0.66146-4.7184 2.9545-8.8194 2.3372-4.101 5.8208-7.1878 3.5278-3.1309 7.8493-4.8948 4.3656-1.7639 9.0399-1.7639 3.7924 0 6.6587 1.5875 2.9104 1.5434 5.0271 3.8806zm-15.522 32.544q2.734 0 5.1594-1.4111 2.4694-1.4111 4.1451-3.7924 1.6757-2.3812 2.0726-5.2917 0.39688-2.9104-0.61736-5.2917-0.97014-2.3812-3.0427-3.7924-2.0285-1.4111-4.7625-1.4111t-5.1594 1.4111q-2.4253 1.4111-4.0569 3.7924-1.6316 2.3812-2.0285 5.2917t0.57326 5.2917q0.97014 2.3812 2.9986 3.7924t4.7184 1.4111z"/>
    <path d="m229.07 22.046h13.229l-6.2618 44.538q-0.70556 5.0271-3.3073 8.9958-2.5576 4.0128-6.4382 6.8351-3.8806 2.8222-8.599 4.2774-4.7184 1.4993-9.7455 1.4993-4.6743 0-8.6871-1.808-4.0128-1.7639-6.9233-4.9389-2.9104-3.175-4.2774-7.3642l12.876-5.468q0.66146 1.9844 1.9403 3.3514 1.3229 1.4111 3.0868 2.1608 1.808 0.74965 3.8806 0.74965 2.2931 0 4.4538-0.48506 2.2049-0.48507 4.0128-1.4993 1.808-1.0142 2.9986-2.6017 1.1906-1.5434 1.4993-3.7042l0.61736-4.3215q-2.293 2.249-5.2035 3.6601-2.9104 1.367-6.4382 1.367-4.8066 0-8.7753-1.808-3.9246-1.808-6.6587-4.983-2.734-3.2191-3.9688-7.4083-1.1906-4.1892-0.52916-8.9958 0.66145-4.8066 3.0427-8.9958 2.4254-4.1892 6.0413-7.3642 3.6601-3.2191 8.1139-5.0271t9.2604-1.808q3.5278 0 6.0413 1.4111 2.5135 1.367 4.1892 3.616zm-15.346 32.544q2.734 0 5.1594-1.4111 2.4694-1.4111 4.1451-3.7924 1.6757-2.3812 2.0726-5.2917 0.39688-2.9104-0.61736-5.2917-0.97013-2.3812-3.0427-3.7924-2.0285-1.4111-4.7625-1.4111-2.6899 0-5.1153 1.4111-2.4253 1.4111-4.101 3.7924-1.6316 2.3812-2.0285 5.2917-0.39687 2.9104 0.57327 5.2917 0.97014 2.3812 2.9986 3.7924t4.7184 1.4111z"/>
    <path d="m246.71 66.146 8.643-61.736h20.461q6.3941 0 11.642 2.4254 5.2476 2.3812 8.9076 6.6587 3.6601 4.2333 5.2476 9.8337 1.6316 5.5562 0.74965 11.95t-4.101 11.994q-3.175 5.5562-8.0257 9.8337-4.8066 4.2333-10.76 6.6587-5.909 2.3812-12.303 2.3812zm15.081-13.229h7.2319q3.5719 0 6.9233-1.367 3.3955-1.367 6.1736-3.7924 2.8222-2.4254 4.6302-5.6004 1.8521-3.2191 2.3812-6.8792t-0.44097-6.8351q-0.92604-3.175-3.0427-5.6003-2.0726-2.4694-5.0712-3.8365-2.9986-1.367-6.6146-1.367h-7.2319z"/>
    <path d="m323.44 67.296q-6.0854 0-10.672-3.1309-4.542-3.1309-6.791-8.3785-2.2049-5.2917-1.3229-11.686 0.66145-4.8507 2.9545-9.0399 2.3372-4.2333 5.8208-7.4083 3.4837-3.2191 7.717-5.0271 4.2774-1.808 8.8194-1.808 6.0854 0 10.627 3.1309 4.5861 3.1309 6.8351 8.4226t1.3229 11.73q-0.66146 4.8066-2.9986 8.9958-2.2931 4.1892-5.7767 7.4083-3.4837 3.175-7.717 4.983t-8.8194 1.808zm1.8521-13.229q2.5135 0 4.6743-1.367 2.2049-1.367 3.7042-3.616 1.4993-2.293 1.8521-4.983 0.39687-2.7781-0.48507-5.0712-0.88195-2.293-2.734-3.616-1.808-1.367-4.1892-1.367-2.4694 0-4.6743 1.4111-2.2049 1.367-3.7042 3.6601-1.4552 2.293-1.8521 4.983-0.39688 2.8222 0.48507 5.0712 0.92604 2.249 2.734 3.5719 1.808 1.3229 4.1892 1.3229z"/>
    <path d="m351.44 66.146 9.2604-66.146h13.229l-9.2604 66.146z"/>
    <path d="m375.3 66.146 9.2604-66.146h13.229l-9.2604 66.146z"/>
  </g>
</svg>
