<svg width="1138.8" height="410.56" version="1.1" viewBox="0 0 301.31 108.63" xmlns="http://www.w3.org/2000/svg">
  <g transform="translate(-120.28 -13.42)">
    <g transform="translate(.34956 .31152)" fill="#f55">
      <g stroke-width=".26458">
        <path d="m400.21 77.207q3.7896-15.934 6.0289-25.58 2.3254-9.6463 3.5312-14.728 1.378-6.0289 1.8948-8.3544 0.25838-1.6364 0.43064-3.1867 0.17225-1.378 0.17225-2.8422 0-1.4642-0.25838-2.6699 0.68902-0.43064 1.4642-0.68902 0.86128-0.25838 1.6364-0.43064 0.9474-0.25838 1.8948-0.43064t1.7226-0.17226q0.68902 0 1.2919 0.17226 0.60289 0.08613 0.77515 0.51676 0.51676 0.43064 0.43063 1.7225 0 1.2919-0.17225 2.6699-0.34451 1.6364-0.77515 3.5312-1.0335 3.7035-2.8422 10.68-1.5503 5.9428-4.2202 16.192-2.5838 10.249-6.5457 25.838-0.43063 0.43064-1.0335 0.60289-0.60289 0.17226-1.1196 0.17226-0.60289 0-1.2919-0.08613-0.60289-0.17226-1.2058-0.51676-0.51677-0.34451-1.0335-0.9474-0.51677-0.51676-0.77515-1.4642z"/>
        <path d="m380.92 77.207q3.7896-15.934 6.0289-25.58 2.3254-9.6463 3.5312-14.728 1.378-6.0289 1.8948-8.3544 0.25838-1.6364 0.43063-3.1867 0.17226-1.378 0.17226-2.8422 0-1.4642-0.25838-2.6699 0.68902-0.43064 1.4642-0.68902 0.86127-0.25838 1.6364-0.43064 0.9474-0.25838 1.8948-0.43064t1.7226-0.17226q0.68902 0 1.2919 0.17226 0.60289 0.08613 0.77515 0.51676 0.51676 0.43064 0.43063 1.7225 0 1.2919-0.17225 2.6699-0.34451 1.6364-0.77515 3.5312-1.0335 3.7035-2.8422 10.68-1.5503 5.9428-4.2202 16.192-2.5838 10.249-6.5457 25.838-0.43064 0.43064-1.0335 0.60289-0.60289 0.17226-1.1196 0.17226-0.60289 0-1.2919-0.08613-0.60289-0.17226-1.2058-0.51676-0.51676-0.34451-1.0335-0.9474-0.51677-0.51676-0.77515-1.4642z"/>
        <path d="m373 64.891q-0.86127 3.2728-2.3254 6.115-1.4642 2.8422-3.5312 4.9093-1.9809 2.0671-4.5647 3.1867-2.4977 1.2058-5.5122 1.2058-3.5312 0-5.5983-1.5503-1.9809-1.4642-3.0145-3.7035-0.9474-2.2393-1.1196-4.9093-0.25839-2.6699-0.25839-4.9954 0-1.6364 0.43064-3.6173 0.34451-1.9809 1.0335-4.048t1.7226-4.1341q1.1196-2.0671 2.5838-3.7896 0.51676-1.4642 1.5503-2.5838 1.1196-1.1197 2.4977-1.8087 1.4642-0.77515 3.1006-1.1197 1.6364-0.43064 3.1867-0.43064 0.25838 0 0.43063 0.08613 0.25839 0.08613 0.51677 0.17225 1.1196 0.08613 2.7561 0.86127 1.7226 0.77515 3.2728 2.3254 1.6364 1.5503 2.7561 3.9619 1.1196 2.3254 1.1196 5.6844 0 0.68902-0.0861 1.7225-0.0861 0.9474-0.17225 1.6364 1.9809-0.77515 4.1341-1.8948 2.1532-1.1197 4.1341-2.3254 2.0671-1.2919 3.7896-2.5838 1.7225-1.2919 2.7561-2.3254 0.86128-0.77515 1.4642-0.86127 0.60289-0.08613 0.86127 0.34451 0.25838 0.43064 0.0861 1.2058-0.17226 0.77515-0.9474 1.7225-0.43064 0.51676-2.2393 2.0671-1.7226 1.5503-4.1341 3.359-2.4116 1.8087-5.2538 3.5312-2.8422 1.7225-5.426 2.5838zm-14.556-13.091q-0.25838 0.77515-0.25838 1.6364 0 1.378 0.17226 2.9283 0.17225 1.4642 0.86127 2.6699t2.1532 2.0671q1.5503 0.77515 4.2202 0.77515 0.43064 0 0.86128 0 0.43063-0.08613 0.86127-0.17225 0.25838-1.1197 0.43064-1.9809 0.25838-0.9474 0.25838-1.6364 0.17225-1.6364 0-3.359-0.17226-1.7225-0.68902-3.1006-0.43064-1.4642-1.2058-2.3254-0.68902-0.9474-1.7226-0.9474-1.6364 0-3.1867 0.9474-1.4642 0.86127-2.7561 2.4977zm-5.5122 15.158q0 1.5503 0.17226 3.1006 0.17225 1.4642 0.68902 2.6699 0.51676 1.1197 1.378 1.8948 0.86128 0.68902 2.2393 0.68902 1.5503 0 2.8422-0.68902 1.2919-0.77515 2.3254-1.8948 1.0335-1.2058 1.8087-2.6699 0.86127-1.5503 1.4642-3.1867-0.60289 0.08613-1.2058 0.17226-0.51676 0-1.2058 0-3.2728 0-5.6844-1.8948-2.3254-1.9809-3.6173-4.9954-0.51677 1.8087-0.86128 3.5312-0.34451 1.7225-0.34451 3.2728z"/>
      </g>
      <path d="m291.13 89.984c-0.53037-0.35358-0.79558-0.73664-0.79558-1.1492-0.0588-0.41252 0.0295-0.82504 0.26521-1.2376 0.23571-0.47144 0.5893-0.94289 1.0608-1.4143 0.47144-0.41252 1.0313-1.4733 1.6796-3.1823 0.64823-1.6501 1.3259-3.6537 2.0331-6.011 0.7661-2.4162 1.5028-5.0386 2.2099-7.8673 0.76612-2.8287 1.4733-5.5985 2.1215-8.3093 0.64824-2.7108 1.2081-5.2154 1.6795-7.5137s0.82503-4.1252 1.0608-5.4806c0.29467-1.6501 0.61878-3.4475 0.97238-5.3922 0.29465-1.709 0.61877-3.6832 0.97235-5.9226 1.2899-5.1072-10.263 0.21738-9.9687-2.5524l18.013-8.232c1.0018-0.47145 1.709-0.35358 2.1215 0.35359 0.41252 0.64824 0.41252 2.0331 0 4.1547-0.17679 1.0608-0.50093 2.7992-0.97237 5.2154-0.47145 2.3572-1.0313 4.9797-1.6795 7.8673-0.58933 2.8287-1.2376 5.7458-1.9448 8.7513-0.64823 2.9466-1.2965 5.569-1.9447 7.8673-0.58931 2.1805-1.267 4.685-2.0331 7.5137-1.3554 4.8324-3.2412 11.433-5.6574 19.801 0.82505 1.4143 2.3573 2.1215 4.5966 2.1215 2.4751 0 5.3333-0.94291 8.5745-2.8287 3.3001-1.8858 6.4824-4.7145 9.5468-8.4861 3.0644-3.7716 5.7458-8.4861 8.0441-14.143 2.3572-5.7163 3.8305-12.376 4.4198-19.978 0.29466-4.1252 0.0883-7.7495-0.61878-10.873-0.70717-3.1234-1.7974-5.7458-3.2707-7.8673-1.4144-2.1215-3.1823-3.7127-5.3038-4.7734-2.0626-1.0608-4.3657-1.4355-6.895-1.5911-7.1648-0.44101-11.941 2.7551-22.033 7.2381 1.9816-5.0983 19.477-16.563 30.873-11.835 3.5359 1.4143 6.5708 3.5948 9.1049 6.5414 2.593 2.9466 4.5672 6.6592 5.9226 11.138 1.3554 4.4198 1.8269 9.6058 1.4144 15.558-0.23571 3.418-0.94289 6.9834-2.1215 10.696-1.1197 3.6537-2.6224 7.2485-4.5082 10.784-1.8269 3.5359-4.0073 6.8949-6.5414 10.077-2.534 3.1823-5.3038 5.9521-8.3093 8.3093-3.0055 2.4162-6.2172 4.302-9.6352 5.6574-3.418 1.4143-6.9539 2.1215-10.608 2.1215-1.1197-0.05886-2.3278-0.26519-3.6243-0.61878-1.1197-0.29465-2.3867-0.79557-3.8011-1.5027-1.4143-0.70718-2.8876-1.709-4.4198-3.0055z" stroke-width=".19397"/>
      <g stroke-width=".26458">
        <path d="m273.86 90.902q-0.43063 2.0671-1.1196 5.1676-0.60289 3.1006-1.4642 6.5457-0.77514 3.4451-1.8948 6.8041-1.0335 3.4451-2.3254 6.115-1.2919 2.7561-2.8422 4.4786t-3.4451 1.7226q-2.8422 0-4.9093-1.7226-1.9809-1.6364-3.359-4.2202-1.378-2.4977-1.9809-5.426-0.68901-2.9283-0.68901-5.426 0-3.4451 0.60289-5.7705 0.60289-2.2393 2.067-4.3064 1.5503-2.0671 4.1341-4.3925 2.5838-2.3254 6.6318-5.7705 1.9809-1.7225 3.7896-3.2728 1.8087-1.5503 3.4451-2.8422 0.43063-1.7225 0.77514-3.1867 0.43064-1.5503 0.68902-2.7561-2.2393 3.0145-5.426 5.0815-3.1006 2.0671-7.1486 2.0671-3.7035 0-6.0289-3.2728-2.2393-3.359-2.2393-9.8185 0-3.1867 1.2058-7.3208 1.2058-4.1341 3.4451-7.7515t5.5122-6.115 7.3208-2.4977q1.8948 0 3.2728 0.9474 1.378 0.9474 2.3254 2.4116 0.9474 1.378 1.4642 3.0145 0.51676 1.5503 0.77514 2.9283 0.17226-0.51676 0.25839-1.0335 0.0861-0.60289 0.25838-1.0335 0.86127-2.9283 1.8948-3.9619 1.1196-1.1197 3.2728-1.1197 1.2058 0 1.9809 0.43064 0.86127 0.43064 0.86127 0.77515-0.43064 0.9474-0.68902 1.4642t-0.51676 1.1197q-0.25838 0.51676-0.51677 1.378-0.25838 0.86127-0.68902 2.4977-0.17225 0.60289-0.68901 2.8422-0.43064 2.1532-1.2058 5.1676-0.68902 3.0145-1.5503 6.6318-0.77514 3.6173-1.5503 7.0624 2.4116-1.378 4.9954-3.359t4.9093-4.048 4.1341-3.8757q1.8087-1.8948 2.6699-3.1006 0.68902-1.0335 1.5503-1.4642 0.86127-0.43064 1.4642-0.25838 0.68902 0.08613 0.77515 0.77515 0.17225 0.60289-0.51677 1.7225-1.9809 3.1867-4.8231 6.2012-2.8422 2.9283-5.8567 5.5122-2.9283 2.4977-5.7705 4.4786-2.7561 1.8948-4.737 3.1006-0.86128 3.8757-1.4642 6.2873-0.60289 2.4116-1.0335 4.3925zm-10.852-16.967q1.8087 0 3.359-0.9474 1.6364-0.9474 2.9283-2.1532 1.2919-1.2919 2.1532-2.5838 0.86127-1.2919 1.2919-2.0671 0.34451-0.77515 0.77514-2.0671 0.51677-1.2919 0.77515-2.4977 0.25838-1.2058 0.17225-2.1532 0-0.9474-0.60289-1.0335-0.51676-0.08613-0.86127-0.68902-0.25838-0.60289-0.43064-1.378-0.17225-0.77515-0.25838-1.5503 0-0.77515-0.0861-1.378-0.43063-3.0145-1.4642-4.3925-1.0335-1.378-2.3254-1.378-2.1532 0-4.1341 1.7225-1.8948 1.7225-3.4451 4.4786-1.4642 2.6699-2.3254 5.9428-0.86128 3.1867-0.86128 6.115 0 3.6173 1.0335 5.8567 1.0335 2.1532 4.3064 2.1532zm-3.9619 39.963q1.7226 0 2.7561-2.5838 1.1196-2.4977 2.3254-6.8902 0.25839-1.0335 0.68902-3.0144 0.51677-1.8948 1.1197-4.3925 0.68902-2.4977 1.378-5.426 0.68901-2.8422 1.4642-5.7705-0.68902 0.60289-1.4642 1.2058-0.68902 0.68902-1.4642 1.5503-1.8948 1.8087-3.7035 3.4451-1.7225 1.7225-3.1006 3.5312-1.378 1.8948-2.2393 4.048-0.77515 2.1532-0.77515 4.9954t0.17226 4.6509q0.25838 1.8087 0.60289 2.8422 0.43064 1.0335 0.9474 1.378 0.60289 0.43064 1.2919 0.43064z"/>
        <path d="m256.9 61.446q-1.2058 1.7225-3.1006 4.3064-1.8948 2.4977-3.9619 5.0815-1.9809 2.4977-3.9619 4.6509-1.8948 2.0671-3.1867 2.9283-0.86127 0.51676-1.9809 0.86127-1.1196 0.34451-2.3254 0.43064-1.1196 0.08613-2.1532-0.17226-1.0335-0.17225-1.8087-0.68902-0.77515-0.60289-1.2919-1.7225-0.43064-0.9474-0.86128-2.4977-0.34451-1.5503-0.25838-3.8757-2.067 3.4451-4.5648 5.3399-2.4977 1.8087-4.737 2.6699-2.5838 0.9474-5.1676 1.1197-1.2058 0-2.5838-0.86127-1.378-0.77515-2.3254-2.4977-0.9474-1.8087-1.2058-4.5647-0.25839-2.8422 0.68902-6.7179 1.2058-5.2538 3.7896-9.5601 2.67-4.3064 5.7705-7.3208 3.1006-3.1006 6.115-4.6509 3.0145-1.5503 4.9954-1.378 2.3254 0.43064 3.7896 1.378 1.2058 0.86127 1.5503 2.5838 0.43064 1.6364-1.378 4.3925 1.2058-0.25838 1.9809-0.34451 0.86128-0.08613 1.2919-0.08613 0.51677 0 0.68902 0.08613 0.0861 0.17225 0.0861 0.77515 0 0.51676-0.25838 1.9809-0.25838 1.4642-0.77515 3.9619-0.51676 2.4977-1.378 6.4596-0.17225 0.77515-0.3445 1.4642-0.0861 0.60289-0.25839 1.2919-0.0861 0.60289-0.25838 1.4642-0.17225 0.86127-0.43064 2.1532-0.0861 0.77515-0.0861 1.7225 0.0861 0.86127 0.34451 1.6364 0.25838 0.77515 0.77514 1.2919 0.60289 0.43064 1.6364 0.43064 0.86128 0 2.2393-1.0335 1.378-1.1197 2.9283-2.7561 1.5503-1.7225 3.1867-3.7035 1.7226-2.0671 3.1867-3.9619 1.4642-1.8948 2.5838-3.359 1.2058-1.4642 1.7225-2.1532 0.68902-0.77515 1.378-0.86127 0.68902-0.17226 1.0335 0.34451t0.0861 1.5503q-0.17226 1.0335-1.2058 2.4116zm-25.235 3.7896q0.43064-1.7225 1.0335-4.048t1.0335-4.4786q0.43063-2.1532 0.60289-3.5312 0.25838-1.4642-0.0861-1.378-0.43063 0.08613-0.9474 0.25838-0.43064 0.17225-1.1196 0.25838-0.68902 0.08613-1.378 0.25838 0.68902-1.378 0.77514-2.2393 0.17226-0.9474 0.0861-1.4642-0.0861-0.60289-0.34451-0.9474-0.9474-0.77515-3.359 1.2919-2.3254 1.9809-5.426 7.407-1.2919 2.2393-2.067 4.8231-0.77515 2.4977-1.1197 4.737-0.25838 2.2393-0.0861 3.9619 0.17226 1.6364 0.68902 2.1532 0.9474 0.9474 2.1532 0.9474 1.2058-0.08613 2.4116-0.68902 1.2919-0.68902 2.4977-1.7225 1.2919-1.0335 2.2393-2.1532 1.0335-1.1197 1.6364-2.0671 0.68901-0.9474 0.77514-1.378z"/>
        <path d="m173.61 78.155q-0.6029 0.9474-1.2919 1.2058-0.77515 0.34451-1.2919 0.08613-0.6029-0.17226-0.77515-0.86127-0.17225-0.68902 0.34451-1.7225 0.25838-0.51676 1.2058-2.3254 0.86128-1.8087 2.1532-4.3064 1.2058-2.5838 2.6699-5.5121 1.4642-3.0145 2.7561-5.6844 1.378-2.6699 2.4977-4.737 1.1197-2.1532 1.6364-3.1006-0.9474-0.86127-1.2919-1.2058-0.34451-0.43064-0.51676-1.7225-0.17226-1.1197 0.51676-2.9283t1.8087-3.4451q1.1197-1.7225 2.4977-2.9283 1.378-1.2058 2.6699-1.2058 2.4116 0 3.359 1.5503 1.0335 1.5503 1.2058 3.1867 0.17226 1.1197-0.17225 2.8422t-1.2919 3.1006q0.25838 0.17226 0.68902 0.43064 0.43063 0.17226 1.378 0.17226 1.378 0 1.8948-0.17226 0.60289-0.17226 1.8087-0.17226 1.4642 0 2.4116 0.77515 0.9474 0.68902 1.5503 1.8087 0.60289 1.0335 0.86127 2.3254 0.34451 1.2058 0.43064 2.2393 0.25838 2.1532-1.1197 4.4786-1.378 2.3254-3.359 5.0815-1.2058 1.7225-2.4116 3.8757-1.2058 2.1532-1.0335 3.8757 0.17226 1.1197 0.60289 1.8087 0.43064 0.68902 2.4116 0.68902 1.4642 0 3.1867-1.0335 1.8087-1.1197 3.6174-2.7561 1.8948-1.7225 3.7035-3.7035 1.8087-2.0671 3.359-3.9619 1.5503-1.9809 2.5838-3.5312 1.1197-1.5503 1.6364-2.2393 0.43064-0.68902 1.1197-0.9474t1.2058 0 0.60289 1.0335q0.17226 0.77515-0.60289 2.0671-0.51676 0.86127-1.8087 2.7561-1.2058 1.8948-3.0145 4.2202-1.7226 2.3254-3.8757 4.8231-2.1532 2.4116-4.5648 4.4786-2.3254 1.9809-4.737 3.2728-2.3254 1.2919-4.4786 1.2919-2.2393 0-3.7035-0.86127-1.4642-0.86127-2.4116-2.0671-0.86127-1.2919-1.2919-2.7561-0.34451-1.5503-0.25838-2.8422 0.0861-1.0335 0.51676-2.1532 0.51677-1.2058 1.1197-2.4116 0.68902-1.2919 1.378-2.4977 0.77514-1.2919 1.378-2.4977 1.4642-2.4977 2.3254-4.2202 0.9474-1.8087 0.9474-3.0145 0-0.77515-0.34451-1.378-0.3445-0.60289-1.1196-0.60289-0.51676 0-0.77515 0.08613-0.17225 0-0.43063 0-0.17226 0-0.60289 0.08613-0.34451 0-1.1197 0-1.1197 0-1.8948-0.34451-0.77515-0.34451-1.4642-0.51676-0.34451 0.60289-1.5503 2.5838t-2.8422 4.6509q-1.5503 2.6699-3.359 5.5983-1.7225 2.9283-3.2728 5.5122-1.5503 2.4977-2.5838 4.3064-1.1196 1.7225-1.378 2.0671z"/>
      </g>
      <path d="m120.74 89.984c-0.53037-0.35358-0.79558-0.73664-0.79558-1.1492-0.0588-0.41252 0.0295-0.82504 0.26521-1.2376 0.23571-0.47144 0.5893-0.94289 1.0608-1.4143 0.47144-0.41252 1.0313-1.4733 1.6796-3.1823 0.64823-1.6501 1.3259-3.6537 2.0331-6.011 0.7661-2.4162 1.5028-5.0386 2.2099-7.8673 0.76612-2.8287 1.4733-5.5985 2.1215-8.3093 0.64824-2.7108 1.2081-5.2154 1.6795-7.5137s0.82503-4.1252 1.0608-5.4806c0.29467-1.6501 0.61878-3.4475 0.97238-5.3922 0.29465-1.709 0.61877-3.6832 0.97235-5.9226 1.2899-5.1072-10.263 0.21738-9.9687-2.5524l18.013-8.232c1.0018-0.47145 1.709-0.35358 2.1215 0.35359 0.41252 0.64824 0.41252 2.0331 0 4.1547-0.17679 1.0608-0.50093 2.7992-0.97237 5.2154-0.47145 2.3572-1.0313 4.9797-1.6795 7.8673-0.58933 2.8287-1.2376 5.7458-1.9448 8.7513-0.64823 2.9466-1.2965 5.569-1.9447 7.8673-0.58931 2.1805-1.267 4.685-2.0331 7.5137-1.3554 4.8324-3.2412 11.433-5.6574 19.801 0.82505 1.4143 2.3573 2.1215 4.5966 2.1215 2.4751 0 5.3333-0.94291 8.5745-2.8287 3.3001-1.8858 6.4824-4.7145 9.5468-8.4861 3.0644-3.7716 5.7458-8.4861 8.0441-14.143 2.3572-5.7163 3.8305-12.376 4.4198-19.978 0.29466-4.1252 0.0883-7.7495-0.61878-10.873-0.70717-3.1234-1.7974-5.7458-3.2707-7.8673-1.4144-2.1215-3.1823-3.7127-5.3038-4.7734-2.0626-1.0608-4.3657-1.4355-6.895-1.5911-7.1648-0.44101-11.941 2.7551-22.033 7.2381 1.9816-5.0983 19.477-16.563 30.873-11.835 3.5359 1.4143 6.5708 3.5948 9.1049 6.5414 2.593 2.9466 4.5672 6.6592 5.9226 11.138 1.3554 4.4198 1.8269 9.6058 1.4144 15.558-0.23571 3.418-0.94289 6.9834-2.1215 10.696-1.1197 3.6537-2.6224 7.2485-4.5082 10.784-1.8269 3.5359-4.0073 6.8949-6.5414 10.077-2.534 3.1823-5.3038 5.9521-8.3093 8.3093-3.0055 2.4162-6.2172 4.302-9.6352 5.6574-3.418 1.4143-6.9539 2.1215-10.608 2.1215-1.1197-0.05886-2.3278-0.26519-3.6243-0.61878-1.1197-0.29465-2.3867-0.79557-3.8011-1.5027-1.4143-0.70718-2.8876-1.709-4.4198-3.0055z" stroke-width=".19397"/>
    </g>
  </g>
</svg>
