<svg version="1.1" viewBox="0 0 512 512" xmlns="http://www.w3.org/2000/svg">
  <g fill="#f55" aria-label="D">
    <path d="m119.64 443.76c-2.7344-1.8229-4.1016-3.7978-4.1016-5.9245-0.30382-2.1267 0.15191-4.2535 1.3672-6.3802 1.2153-2.4306 3.0382-4.8611 5.4688-7.2917 2.4306-2.1267 5.3168-7.5955 8.6589-16.406 3.342-8.507 6.8359-18.837 10.482-30.99 3.9496-12.457 7.7474-25.977 11.393-40.56 3.9497-14.583 7.5955-28.863 10.938-42.839 3.342-13.976 6.2283-26.888 8.6589-38.737 2.4306-11.849 4.2535-21.267 5.4688-28.255 1.5191-8.507 3.1901-17.773 5.013-27.799 1.5191-8.8108 3.1901-18.989 5.013-30.534 6.6499-26.33-52.913 1.1207-51.394-13.159l92.865-42.44c5.1649-2.4306 8.8108-1.8229 10.938 1.8229 2.1267 3.342 2.1267 10.482 0 21.419-0.91146 5.4688-2.5825 14.431-5.013 26.888-2.4306 12.153-5.3168 25.673-8.6589 40.56-3.0382 14.583-6.3802 29.622-10.026 45.117-3.342 15.191-6.684 28.711-10.026 40.56-3.0382 11.241-6.5321 24.154-10.482 38.737-6.9878 24.913-16.71 58.941-29.167 102.08 4.2535 7.2917 12.153 10.938 23.698 10.938 12.76 0 27.496-4.8611 44.206-14.583 17.014-9.7222 33.42-24.306 49.219-43.75 15.799-19.444 29.622-43.75 41.471-72.917 12.153-29.471 19.748-63.802 22.786-102.99 1.5191-21.267 0.45573-39.952-3.1901-56.055-3.6458-16.102-9.2665-29.622-16.862-40.56-7.2917-10.938-16.406-19.141-27.344-24.609-10.634-5.4688-22.507-7.4005-35.547-8.2031-36.938-2.2736-61.56 14.204-113.59 37.316 10.216-26.284 100.41-85.393 159.16-61.014 18.229 7.2917 33.876 18.533 46.94 33.724 13.368 15.191 23.546 34.332 30.534 57.422 6.9878 22.786 9.4184 49.523 7.2917 80.208-1.2153 17.622-4.8611 36.003-10.938 55.143-5.7726 18.837-13.52 37.37-23.242 55.599-9.4184 18.229-20.66 35.547-33.724 51.953-13.064 16.406-27.344 30.686-42.839 42.839-15.495 12.457-32.053 22.179-49.675 29.167-17.622 7.2917-35.851 10.938-54.688 10.938-5.7726-0.30382-12.001-1.3672-18.685-3.1901-5.7726-1.5191-12.305-4.1016-19.596-7.7474-7.2917-3.6458-14.887-8.8108-22.786-15.495z" fill="#f55"/>
  </g>
</svg>
