<?xml version="1.0" encoding="UTF-8" standalone="no"?>
<svg
  viewBox="0 0 136.77971 172.71385"
  version="1.1"
  xml:space="preserve"
  xmlns="http://www.w3.org/2000/svg"
  xmlns:svg="http://www.w3.org/2000/svg"
>
  <path
    fill="#000"
    d="m 47.995255,172.56226 c -2.15581,-0.45178 -4.01409,-1.58953 -6.33327,-3.8776 -1.22608,-1.20963 -2.37442,-2.19933 -2.55187,-2.19933 -0.6074,0 -2.17512,-0.77387 -3.03713,-1.49921 -1.73454,-1.45952 -1.9978,-3.31264 -0.8233,-5.79529 0.86377,-1.82582 2.05548,-3.28817 3.31296,-4.06534 1.118,-0.69096 1.89639,-2.33145 3.46057,-7.29329 0.68812,-2.18281 1.52693,-4.6498 1.86404,-5.48219 l 0.61293,-1.51345 -0.83815,-0.13886 c -0.46098,-0.0764 -1.96924,-0.32524 -3.35168,-0.55303 -8.71894,-1.43661 -16.10011,-4.48149 -20.61936,-8.50589 l -1.17249,-1.04409 1.67083,-3.1552 c 4.634,-8.75088 10.88278,-17.94074 18.15716,-26.70312 1.57052,-1.891776 5.73779,-6.316746 9.26061,-9.833276 l 6.405109,-6.39369 -0.78787,-0.75006 c -1.16593,-1.10997 -2.550349,-3.07242 -3.502479,-4.96484 l -0.84238,-1.67428 -0.74461,1.42218 c -1.74826,3.33914 -4.11102,5.01782 -6.75411,4.79863 l -1.46183,-0.12122 -2.33406,2.14369 c -1.28373,1.17903 -3.92206,3.33432 -5.86296,4.78953 -3.03054,2.27218 -5.1058,3.59841 -11.97091,7.65025 -0.61185,0.36112 -1.42961,1.1688 -1.81724,1.79483 -1.06828,1.725346 -2.16643,2.798426 -4.31413,4.215666 -2.06113,1.36011 -3.59286,1.70546 -3.9091004,0.88136 -0.23943,-0.62394 0.6085404,-2.56382 1.6552304,-3.78665 l 0.93999,-1.098166 h -1.02336 c -1.6918704,0 -4.0286504,0.738036 -6.7816604,2.141896 -2.76103,1.40794 -3.70327,1.54761 -4.29195,0.63623 -0.27967,-0.43297 -0.27874,-0.70961 0.005,-1.52189 1.14207,-3.267876 6.00835,-6.620496 10.8299904,-7.461316 1.29154,-0.22523 2.75529,-0.4095 3.25277,-0.4095 0.49749,0 1.28557,-0.19263 1.75128,-0.42806 0.89706,-0.45348 9.18424,-8.5316 13.19757,-12.86462 l 2.38692,-2.57706 -0.82383,-1.24375 c -2.76705,-4.177484 -0.9226,-7.647474 5.79911,-10.909969 l 3.04426,-1.47758 h -2.64739 c -3.17418,0 -4.70917,-0.494164 -6.011,-1.935134 l -0.88372,-0.978174 -2.37425,-0.0021 c -1.90707,-0.0016 -2.64071,-0.121964 -3.72845,-0.611454 -2.80133,-1.260614 -4.20041,-3.620202 -4.18405,-7.056517 0.0123,-2.585464 0.71598,-4.566087 2.23556,-6.292427 l 1.04529,-1.187506 -1.21651,-0.306321 c -2.93893,-0.740031 -5.99836,-2.891879 -6.97244,-4.90407 -1.21414,-2.508075 -0.41825,-3.319497 4.54083,-4.629455 1.79283,-0.473583 4.16631,-1.191251 5.2744,-1.594817 2.39285,-0.871476 6.6321,-2.649992 6.91981,-2.903107 0.11179,-0.09835 -0.15101,-1.037934 -0.58401,-2.08796 -1.5492,-3.756852 -1.97391,-5.72184 -1.98142,-9.167252 -0.006,-2.772344 0.0826,-3.429894 0.69909,-5.184873 1.35218,-3.849428 3.7391,-7.0636961 7.17862,-9.6668491 4.32387,-3.272464 9.03094,-4.27908899 14.08744,-3.01265 2.151819,0.538941 10.377199,4.452244 11.844709,5.635234 l 0.75603,0.609455 -1.67388,1.033181 c -3.538,2.1837771 -28.438159,20.4393011 -28.201539,20.6759241 0.19501,0.19501 3.59331,-0.971012 5.79781,-1.98934 5.116,-2.363243 11.19871,-6.264859 23.429059,-15.028053 C 78.419454,2.0635439 82.046754,0.02812891 86.365214,3.8790251e-4 88.725554,-0.01477209 89.848504,0.41158591 91.053364,1.7803849 c 1.34239,1.525036 1.66692,2.605768 1.83286,6.103668 0.11489,2.4219261 0.0429,3.3062471 -0.41719,5.1257141 -1.28996,5.101126 -3.83549,8.793545 -8.78921,12.749212 l -2.32511,1.856658 -0.41392,1.819867 c -0.49024,2.155423 -0.52978,4.072169 -0.10961,5.313945 0.16738,0.494658 0.88175,1.517329 1.5875,2.272602 1.09455,1.171349 1.28319,1.529783 1.28319,2.438189 0,1.169008 -1.04664,2.642182 -2.35953,3.321104 -0.56326,0.291275 -0.77547,0.708007 -1.13018,2.219405 -1.63079,6.94879 -6.55239,11.17897 -13.50977,11.611818 -1.27331,0.07922 -2.3151,0.232001 -2.3151,0.339519 0,0.757461 1.86618,1.237715 6.08541,1.566054 6.37372,0.495998 12.79889,2.187839 14.79382,3.895424 1.05912,0.906568 1.60578,2.115394 1.60887,3.557659 0.001,0.630327 0.17623,0.741007 2.052,1.298647 5.30928,1.57837 8.64486,0.4722 20.100466,-6.665844 6.06255,-3.777605 8.56036,-4.963006 10.48005,-4.973578 0.55734,-0.0031 2.46234,0.182947 4.23334,0.41337 2.64402,0.344011 3.48977,0.361707 4.72818,0.09893 0.8295,-0.17601 1.69271,-0.249212 1.91823,-0.162671 0.56891,0.218311 0.51343,1.321286 -0.0941,1.871104 -0.67024,0.606564 -2.74673,1.213268 -4.15249,1.213268 -1.46838,0 -1.71652,0.435941 -0.53028,0.931586 1.82168,0.761144 4.03756,0.322205 7.6402,-1.513428 1.41613,-0.721556 2.26838,-1.006867 2.69087,-0.900831 1.35901,0.341091 1.02238,1.823884 -0.70247,3.094204 -1.55404,1.144524 -5.03831,2.788362 -6.94467,3.276416 -2.05348,0.525721 -5.56197,0.512724 -9.06971,-0.0336 -1.97599,-0.307755 -3.0115,-0.360454 -3.4952,-0.177878 -0.37803,0.142691 -3.09819,2.155182 -6.0448,4.472212 -9.1185,7.170204 -12.278876,8.824444 -17.285096,9.047534 -2.14731,0.0957 -3.69493,-0.0184 -6.5523,-0.48306 l -3.74097,-0.60834 -1.02434,0.57571 c -1.31735,0.7404 -2.02214,0.72541 -3.60646,-0.0767 -0.70874,-0.35882 -1.33081,-0.61021 -1.38236,-0.55866 -0.0516,0.0516 -0.31269,1.1488 -0.58031,2.43833 -0.26761,1.28952 -0.5616,2.64225 -0.65329,3.00605 -0.15597,0.61876 0.0173,0.75539 2.68381,2.11667 13.42536,6.85368 26.359276,17.703246 36.687466,30.775116 l 2.05191,2.597 -1.13174,1.50405 c -1.79065,2.3797 -4.73219,5.13353 -7.36352,6.89359 -1.33363,0.89205 -2.53604,1.62191 -2.67202,1.62191 -0.13599,0 -0.24725,0.1046 -0.24725,0.23244 0,0.70198 10.36463,12.89266 12.06251,14.1877 2.85151,2.17495 4.94074,1.99205 11.07454,-0.9695 2.29606,-1.1086 3.06544,-1.23327 3.69926,-0.59945 0.6341,0.6341 0.50707,1.44732 -0.55892,3.57809 -1.17719,2.35307 -4.29069,5.60648 -7.13058,7.451 -1.47421,0.95751 -2.01611,1.4915 -2.4745,2.4384 -1.78164,3.68039 -6.13724,2.11485 -8.58065,-3.08415 -1.0968,-2.33371 -2.11017,-3.32313 -5.27069,-5.14612 -4.50208,-2.5968 -9.368396,-6.18593 -12.767616,-9.41671 l -1.61229,-1.53239 -2.22417,1.03941 c -7.77184,3.63195 -18.4191,6.04636 -28.86212,6.54488 l -3.66142,0.17478 -4.56178,6.35252 c -6.973009,9.71028 -6.546149,9.0175 -6.546149,10.62431 0,1.47747 0.89433,4.55783 2.00476,6.9051 0.69077,1.46016 1.44791,2.20718 3.683779,3.63453 0.9892,0.63149 1.34418,1.02957 1.40721,1.57806 0.0714,0.62159 -0.0572,0.79266 -0.84328,1.12108 -1.19512,0.49936 -4.200769,0.70243 -5.711309,0.38587 z m 26.382609,-46.82134 c 2.49682,-1.52233 2.49682,-4.80073 0,-6.36857 -1.26995,-0.79745 -3.3747,-0.60103 -4.43392,0.41377 -2.56584,2.45823 -0.94008,6.43493 2.64557,6.4712 0.50932,0.005 1.31408,-0.22723 1.78835,-0.5164 z m -28.124619,-1.69548 c 1.761,-1.34318 1.90402,-4.00569 0.30127,-5.60845 -1.60275,-1.60275 -4.26527,-1.45973 -5.60844,0.30127 -2.71432,3.55866 1.74852,8.0215 5.30717,5.30718 z m 50.752579,-7.39997 c 1.48529,-0.63287 2.12758,-1.57469 2.2526,-3.30305 0.10332,-1.42839 0.05,-1.61198 -0.72421,-2.49376 -1.42787,-1.62626 -3.59387,-1.91596 -5.15336,-0.68927 -2.20239,1.73241 -1.8594,5.12708 0.64518,6.38542 1.10964,0.5575 1.84901,0.58248 2.97979,0.10066 z M 37.003055,82.876994 c 0.41826,-0.43657 0.64889,-0.79432 0.51253,-0.79501 -0.13637,-6.9e-4 -1.19248,-0.71507 -2.34692,-1.5875 -1.15443,-0.87243 -2.23731,-1.58624 -2.40639,-1.58624 -0.16907,0 -0.52404,0.23937 -0.78881,0.53194 -0.46755,0.51664 -0.46303,0.55196 0.15743,1.22814 0.70019,0.76309 3.62817,3.00242 3.92573,3.00242 0.10228,0 0.52818,-0.35719 0.94643,-0.79375 z m 48.707429,-9.05979 c 0.84334,-1.519664 1.64303,-3.526834 1.67519,-4.204664 0.0113,-0.23769 -0.22168,-0.49549 -0.51769,-0.5729 -0.46196,-0.1208 -0.74305,0.26774 -1.98438,2.74286 -0.79539,1.58598 -1.44617,2.936834 -1.44617,3.001904 0,0.0651 0.26789,0.16989 0.59531,0.23295 0.32742,0.0631 0.66568,0.13088 0.7517,0.1507 0.086,0.0198 0.50273,-0.58806 0.92604,-1.35085 z m -23.35618,-8.525196 c 3.00462,-0.53558 4.04876,-1.394709 4.34075,-3.571598 0.11772,-0.877729 0.0647,-1.068414 -0.29721,-1.068414 -0.61589,0 -2.82822,-1.154685 -3.83428,-2.001235 -1.36537,-1.148879 -1.78663,-2.40023 -1.6527,-4.909342 l 0.037,-0.692869 1.52136,0.358007 c 4.80945,1.131765 9.82921,-0.422168 12.44581,-3.852767 l 0.89585,-1.174534 -1.19705,-0.349044 c -1.26852,-0.369882 -2.28888,-1.377999 -2.28888,-2.261407 0,-0.434262 0.12498,-0.49694 0.7276,-0.364877 0.40018,0.0877 1.4537,0.236173 2.34115,0.329943 l 1.61354,0.17049 0.30469,-1.210011 c 0.16757,-0.665506 0.30468,-1.504263 0.30468,-1.863904 0,-0.498891 0.31053,-0.844966 1.31001,-1.459951 1.64799,-1.014018 2.34013,-1.974113 1.84941,-2.565393 -0.18851,-0.227148 -0.68931,-0.592208 -1.11288,-0.811245 -0.50646,-0.261897 -1.0008,-0.902095 -1.44386,-1.869868 -0.58868,-1.285846 -0.65485,-1.709324 -0.52417,-3.354618 0.0823,-1.035649 0.40904,-2.95456 0.72619,-4.264248 1.03148,-4.259657 0.3924,-8.520515 -1.53987,-10.266475 -0.51937,-0.469298 -0.53654,-0.448056 -1.07779,1.333903 -1.03623,3.411578 -3.33947,6.193915 -6.34438,7.664081 -1.82229,0.89156 -4.88374,1.127544 -6.64899,0.512521 -0.64916,-0.226171 -1.18878,-0.386727 -1.19916,-0.356791 -0.0104,0.02993 -0.27457,1.344629 -0.58711,2.921541 -0.78655,3.968487 -1.95682,6.346602 -4.24325,8.622719 -1.90334,1.894755 -4.06431,3.142366 -5.860029,3.383223 l -1.06438,0.142763 0.40497,0.783133 c 0.64586,1.248944 1.15198,4.122576 1.15695,6.568897 0.01,4.706059 -1.70934,8.370777 -4.99738,10.654447 l -1.21573,0.84437 1.75251,0.150766 c 1.42045,0.122199 2.39806,0.459427 5.159379,1.779719 5.12501,2.450471 6.47011,2.719569 10.23727,2.048068 z m 5.32947,-27.891505 c -1.0816,-0.491302 -2.50259,-1.918072 -2.50259,-2.512764 0,-0.475565 0.56442,-0.958658 1.12004,-0.958658 0.26678,0 1.07244,0.297656 1.79037,0.661458 1.80692,0.915637 2.2645,0.847834 3.65374,-0.541403 1.36978,-1.369781 2.15093,-1.470671 2.45743,-0.317393 0.29776,1.120427 -0.71274,2.806386 -2.13184,3.556822 -1.39316,0.736721 -2.92561,0.775822 -4.38715,0.111938 z m 49.554166,9.736551 c -0.42639,-0.248354 -0.46302,-0.971086 -0.46302,-9.137473 0,-5.606816 0.10072,-9.055983 0.2739,-9.37956 0.2626,-0.490689 0.64739,-0.511773 9.33979,-0.511773 6.69847,0 9.14881,0.08291 9.3834,0.3175 0.23439,0.234393 0.3175,2.653393 0.3175,9.241517 0,7.759966 -0.0542,8.978252 -0.41578,9.339792 -0.3616,0.361606 -1.55945,0.414725 -9.19427,0.407728 -5.46873,-0.005 -8.95307,-0.109725 -9.24152,-0.277731 z"
  />
</svg>
